<svg width="24" height="24" viewBox="0 0 24 24" fill="none" xmlns="http://www.w3.org/2000/svg">
<circle cx="12" cy="12" r="11.5" stroke="#2E8CAD"/>
<path d="M12.6803 9.874C12.6243 9.594 12.5403 9.38867 12.4283 9.258C12.3256 9.12733 12.1623 9.062 11.9383 9.062C11.5836 9.062 11.3456 9.244 11.2243 9.608C11.1123 9.96267 11.0563 10.518 11.0563 11.274C11.2243 11.0127 11.467 10.8073 11.7843 10.658C12.1016 10.5087 12.461 10.434 12.8623 10.434C13.7583 10.434 14.4723 10.7093 15.0043 11.26C15.5456 11.8107 15.8163 12.6087 15.8163 13.654C15.8163 14.354 15.667 14.9653 15.3683 15.488C15.079 16.0013 14.6636 16.398 14.1223 16.678C13.581 16.958 12.9416 17.098 12.2043 17.098C10.739 17.098 9.72165 16.65 9.15231 15.754C8.58298 14.8487 8.29831 13.584 8.29831 11.96C8.29831 10.6907 8.42898 9.664 8.69031 8.88C8.95165 8.096 9.36231 7.51733 9.92231 7.144C10.4916 6.77067 11.229 6.584 12.1343 6.584C13.245 6.584 14.0803 6.90133 14.6403 7.536C15.2096 8.17067 15.5223 8.95 15.5783 9.874H12.6803ZM12.0923 12.814C11.8403 12.814 11.6396 12.884 11.4903 13.024C11.341 13.164 11.2663 13.36 11.2663 13.612C11.2663 13.892 11.3363 14.102 11.4763 14.242C11.6256 14.3727 11.831 14.438 12.0923 14.438C12.3536 14.438 12.5543 14.3727 12.6943 14.242C12.8436 14.102 12.9183 13.892 12.9183 13.612C12.9183 13.36 12.8436 13.164 12.6943 13.024C12.545 12.884 12.3443 12.814 12.0923 12.814Z" fill="#2E8CAD"/>
</svg>
