<svg width="24" height="24" viewBox="0 0 24 24" fill="none" xmlns="http://www.w3.org/2000/svg">
<circle cx="12" cy="12" r="11.5" stroke="#2E8CAD"/>
<path d="M15.5549 9.496H11.4949V10.672C11.6722 10.5133 11.9009 10.3873 12.1809 10.294C12.4702 10.2007 12.7922 10.154 13.1469 10.154C13.7816 10.154 14.3182 10.3033 14.7569 10.602C15.1956 10.9007 15.5222 11.302 15.7369 11.806C15.9516 12.3007 16.0589 12.8513 16.0589 13.458C16.0589 14.578 15.7416 15.4507 15.1069 16.076C14.4816 16.692 13.6182 17 12.5169 17C11.7142 17 11.0189 16.86 10.4309 16.58C9.85224 16.3 9.40891 15.9127 9.10091 15.418C8.80224 14.9233 8.66224 14.3587 8.68091 13.724H11.7049C11.7049 13.8733 11.7562 14.0133 11.8589 14.144C11.9616 14.2747 12.1296 14.34 12.3629 14.34C12.5962 14.34 12.7689 14.256 12.8809 14.088C12.9929 13.92 13.0489 13.6913 13.0489 13.402C13.0489 13.1313 12.9836 12.926 12.8529 12.786C12.7316 12.646 12.5542 12.576 12.3209 12.576C12.1249 12.576 11.9756 12.6227 11.8729 12.716C11.7702 12.8093 11.7189 12.9167 11.7189 13.038H8.69491V6.766H15.5549V9.496Z" fill="#2E8CAD"/>
</svg>
